{
  "accessors": [
    {
      "bufferView": 3,
      "componentType": 5126,
      "count": 28472,
      "max": [
        2.2072598934173584,
        3.8411200046539307,
        7.493599891662598
      ],
      "min": [
        -2.2072598934173584,
        -4.734630107879639,
        0.018929999321699142
      ],
      "type": "VEC3"
    },
    {
      "bufferView": 3,
      "byteOffset": 341664,
      "componentType": 5126,
      "count": 28472,
      "max": [
        1.0,
        1.0,
        1.0
      ],
      "min": [
        -1.0,
        -1.0,
        -1.0
      ],
      "type": "VEC3"
    },
    {
      "bufferView": 2,
      "componentType": 5126,
      "count": 28472,
      "max": [
        0.9969900250434875,
        0.9857100248336792
      ],
      "min": [
        0.0003000000142492354,
        0.0003000000142492354
      ],
      "type": "VEC2"
    },
    {
      "bufferView": 1,
      "componentType": 5125,
      "count": 160704,
      "type": "SCALAR"
    },
    {
      "bufferView": 5,
      "componentType": 5126,
      "count": 57,
      "max": [
        1.0,
        1.0,
        0.7149900197982788,
        0.0,
        1.0,
        1.0,
        0.9100099802017212,
        0.0,
        0.598039984703064,
        1.0,
        1.0,
        0.0,
        4.598790168762207,
        3.6211700439453125,
        3.645430088043213,
        1.0
      ],
      "min": [
        -1.0,
        -1.0,
        -0.7149900197982788,
        0.0,
        -1.0,
        -0.9951099753379822,
        -1.0,
        0.0,
        -0.46230998635292053,
        -0.8701099753379822,
        -0.8966799974441528,
        0.0,
        -5.196119785308838,
        -5.9672698974609375,
        -7.274720191955566,
        1.0
      ],
      "type": "MAT4"
    },
    {
      "bufferView": 0,
      "componentType": 5123,
      "count": 28472,
      "type": "VEC4"
    },
    {
      "bufferView": 4,
      "componentType": 5126,
      "count": 28472,
      "max": [
        1.0,
        0.5,
        0.30653080344200134,
        0.24464482069015503
      ],
      "min": [
        0.2553551495075226,
        0.0,
        0.0,
        0.0
      ],
      "type": "VEC4"
    }
  ],
  "asset": {
    "extras": {
      "author": "Q*Bert Reynolds (https://sketchfab.com/318arcade)",
      "license": "CC-BY-4.0 (http://creativecommons.org/licenses/by/4.0/)",
      "source": "https://sketchfab.com/3d-models/dinosaur-c743536f3c8e48049a00f19c8f8f6d4a",
      "title": "Dinosaur"
    },
    "generator": "Sketchfab-15.25.0",
    "version": "2.0"
  },
  "bufferViews": [
    {
      "buffer": 0,
      "byteLength": 227776,
      "byteStride": 8,
      "name": "shortBufferViews",
      "target": 34962
    },
    {
      "buffer": 0,
      "byteLength": 642816,
      "byteOffset": 227776,
      "name": "floatBufferViews",
      "target": 34963
    },
    {
      "buffer": 0,
      "byteLength": 227776,
      "byteOffset": 870592,
      "byteStride": 8,
      "name": "floatBufferViews",
      "target": 34962
    },
    {
      "buffer": 0,
      "byteLength": 683328,
      "byteOffset": 1098368,
      "byteStride": 12,
      "name": "floatBufferViews",
      "target": 34962
    },
    {
      "buffer": 0,
      "byteLength": 455552,
      "byteOffset": 1781696,
      "byteStride": 16,
      "name": "floatBufferViews",
      "target": 34962
    },
    {
      "buffer": 0,
      "byteLength": 3648,
      "byteOffset": 2237248,
      "name": "floatBufferViews"
    }
  ],
  "buffers": [
    {
      "byteLength": 2240896,
      "uri": "scene.bin"
    }
  ],
  "images": [
    {
      "uri": "textures/Material_baseColor.png"
    }
  ],
  "materials": [
    {
      "doubleSided": true,
      "name": "Material",
      "pbrMetallicRoughness": {
        "baseColorTexture": {
          "index": 0
        },
        "metallicFactor": 0.0,
        "roughnessFactor": 0.6
      }
    }
  ],
  "meshes": [
    {
      "name": "Body",
      "primitives": [
        {
          "attributes": {
            "JOINTS_0": 5,
            "NORMAL": 1,
            "POSITION": 0,
            "TEXCOORD_0": 2,
            "WEIGHTS_0": 6
          },
          "indices": 3,
          "material": 0,
          "mode": 4
        }
      ]
    }
  ],
  "nodes": [
    {
      "children": [
        1
      ],
      "matrix": [
        1.0,
        0.0,
        0.0,
        0.0,
        0.0,
        2.220446049250313e-16,
        -1.0,
        0.0,
        0.0,
        1.0,
        2.220446049250313e-16,
        0.0,
        0.0,
        0.0,
        0.0,
        1.0
      ],
      "name": "Sketchfab_model"
    },
    {
      "children": [
        2,
        62,
        64,
        66
      ],
      "name": "Root"
    },
    {
      "children": [
        3,
        61,
        60
      ],
      "name": "Dinosaur"
    },
    {
      "children": [
        4,
        33,
        45,
        57
      ],
      "name": "Dinosaur_rootJoint"
    },
    {
      "children": [
        5
      ],
      "name": "SpineLower_Dinosaur",
      "rotation": [
        0.08266320824623108,
        0.0,
        0.0,
        0.9965775609016418
      ],
      "scale": [
        1.0,
        0.9999963641166687,
        0.9999963641166687
      ],
      "translation": [
        0.0,
        -1.2550300359725952,
        4.013339996337891
      ]
    },
    {
      "children": [
        6,
        15,
        24
      ],
      "name": "SpineUpper_Dinosaur",
      "rotation": [
        -0.07734140008687973,
        0.0,
        0.0,
        0.9970046877861023
      ],
      "scale": [
        1.0,
        1.000003457069397,
        1.000003457069397
      ],
      "translation": [
        0.0,
        1.2261199951171875,
        0.0
      ]
    },
    {
      "children": [
        7
      ],
      "name": "ShoulderLeft_Dinosaur",
      "rotation": [
        -0.38218361139297485,
        -0.14641018211841583,
        0.7213837504386902,
        0.5586637854576111
      ],
      "scale": [
        0.9999945163726807,
        1.0000022649765015,
        0.9999994039535522
      ],
      "translation": [
        0.0,
        1.1969200372695923,
        0.0
      ]
    },
    {
      "children": [
        8
      ],
      "name": "ArmUpperLeft_Dinosaur",
      "rotation": [
        0.12804454565048218,
        0.4225495457649231,
        -0.4115374684333801,
        0.7973037958145142
      ],
      "scale": [
        1.0000015497207642,
        0.9999960064888,
        0.9999969601631165
      ],
      "translation": [
        0.0,
        1.540079951286316,
        0.0
      ]
    },
    {
      "children": [
        9,
        12
      ],
      "name": "ForearmLeft_Dinosaur",
      "rotation": [
        0.691527783870697,
        0.010152356699109077,
        -0.21055951714515686,
        0.6909058690071106
      ],
      "scale": [
        0.9999943971633911,
        1.0000085830688477,
        1.0000015497207642
      ],
      "translation": [
        0.0,
        1.2180099487304688,
        0.0
      ]
    },
    {
      "children": [
        10
      ],
      "name": "HandOuterLeft_Dinosaur",
      "rotation": [
        -0.14528657495975494,
        -0.021373271942138672,
        0.19951385259628296,
        0.9688287973403931
      ],
      "scale": [
        1.000006079673767,
        0.9999951124191284,
        1.0000019073486328
      ],
      "translation": [
        0.0,
        1.019700050354004,
        0.0
      ]
    },
    {
      "children": [
        11
      ],
      "name": "FingerUpperOuterLeft_Dinosaur",
      "rotation": [
        -0.24728651344776154,
        0.01037777028977871,
        -0.04860132560133934,
        0.9676671028137207
      ],
      "scale": [
        1.0000016689300537,
        0.9999936819076538,
        0.9999952912330627
      ],
      "translation": [
        0.0,
        0.2858000099658966,
        0.0
      ]
    },
    {
      "name": "FingerTipOuterLeft_Dinosaur",
      "rotation": [
        -0.16406838595867157,
        -0.01898496225476265,
        -0.11336824297904968,
        0.9797289371490479
      ],
      "scale": [
        0.9999954700469971,
        1.0000015497207642,
        0.9999976754188538
      ],
      "translation": [
        0.0,
        0.1714099943637848,
        0.0
      ]
    },
    {
      "children": [
        13
      ],
      "name": "HandInnerLeft_Dinosaur",
      "rotation": [
        0.0921584889292717,
        0.04821610450744629,
        -0.2100866287946701,
        0.9721345901489258
      ],
      "scale": [
        1.0000038146972656,
        0.9999990463256836,
        0.9999944567680359
      ],
      "translation": [
        0.0,
        1.019700050354004,
        0.0
      ]
    },
    {
      "children": [
        14
      ],
      "name": "FingerUpperInnerLeft_Dinosaur",
      "rotation": [
        -0.19567807018756866,
        -0.015791235491633415,
        0.1062716469168663,
        0.9747651219367981
      ],
      "scale": [
        0.9999967813491821,
        1.0000038146972656,
        0.9999910593032837
      ],
      "translation": [
        0.0,
        0.3157700002193451,
        0.0
      ]
    },
    {
      "name": "FingerTipInnerLeft_Dinosaur",
      "rotation": [
        -0.2055288851261139,
        -0.07278081029653549,
        0.10905318707227707,
        0.9698290824890137
      ],
      "scale": [
        1.000002145767212,
        0.9999998211860657,
        0.9999945759773254
      ],
      "translation": [
        0.0,
        0.16930000483989716,
        0.0
      ]
    },
    {
      "children": [
        16
      ],
      "name": "ShoulderRight_Dinosaur",
      "rotation": [
        -0.38218361139297485,
        0.14641018211841583,
        -0.7213837504386902,
        0.5586637854576111
      ],
      "scale": [
        0.9999945163726807,
        1.0000022649765015,
        0.9999994039535522
      ],
      "translation": [
        0.0,
        1.1969200372695923,
        0.0
      ]
    },
    {
      "children": [
        17
      ],
      "name": "ArmUpperRight_Dinosaur",
      "rotation": [
        0.047718293964862823,
        -0.48101818561553955,
        0.4005933701992035,
        0.7783761620521545
      ],
      "scale": [
        1.0000048875808716,
        1.0000022649765015,
        0.9999940395355225
      ],
      "translation": [
        0.0,
        1.540079951286316,
        0.0
      ]
    },
    {
      "children": [
        18,
        21
      ],
      "name": "ForearmRight_Dinosaur",
      "rotation": [
        0.691527783870697,
        -0.010152356699109077,
        0.21055951714515686,
        0.6909058690071106
      ],
      "scale": [
        0.9999943971633911,
        1.0000085830688477,
        1.0000015497207642
      ],
      "translation": [
        0.0,
        1.2180099487304688,
        0.0
      ]
    },
    {
      "children": [
        19
      ],
      "name": "HandOuterRight_Dinosaur",
      "rotation": [
        -0.1452842503786087,
        0.02137378603219986,
        -0.19951403141021729,
        0.9688290953636169
      ],
      "scale": [
        1.0000063180923462,
        0.9999955892562866,
        0.9999985694885254
      ],
      "translation": [
        0.0,
        1.019700050354004,
        0.0
      ]
    },
    {
      "children": [
        20
      ],
      "name": "FingerUpperOuterRight_Dinosaur",
      "rotation": [
        -0.24728651344776154,
        -0.01037777028977871,
        0.04860132560133934,
        0.9676671028137207
      ],
      "scale": [
        1.0000016689300537,
        0.9999936819076538,
        0.9999952912330627
      ],
      "translation": [
        0.0,
        0.2858000099658966,
        0.0
      ]
    },
    {
      "name": "FingerTipOuterRight_Dinosaur",
      "rotation": [
        -0.16406838595867157,
        0.01898496225476265,
        0.11336824297904968,
        0.9797289371490479
      ],
      "scale": [
        0.9999954700469971,
        1.0000015497207642,
        0.9999976754188538
      ],
      "translation": [
        0.0,
        0.1714099943637848,
        0.0
      ]
    },
    {
      "children": [
        22
      ],
      "name": "HandInnerRight_Dinosaur",
      "rotation": [
        -0.1669209748506546,
        0.09288503974676132,
        0.15468575060367584,
        0.9693204164505005
      ],
      "scale": [
        1.0000008344650269,
        0.9999961256980896,
        1.0000046491622925
      ],
      "translation": [
        0.0,
        1.019700050354004,
        0.0
      ]
    },
    {
      "children": [
        23
      ],
      "name": "FingerUpperInnerRight_Dinosaur",
      "rotation": [
        -0.19567807018756866,
        0.015791235491633415,
        -0.1062716469168663,
        0.9747651219367981
      ],
      "scale": [
        0.9999967813491821,
        1.0000038146972656,
        0.9999910593032837
      ],
      "translation": [
        0.0,
        0.3157700002193451,
        0.0
      ]
    },
    {
      "name": "FingerTipInnerRight_Dinosaur",
      "rotation": [
        -0.2055288851261139,
        0.07278081029653549,
        -0.10905318707227707,
        0.9698290824890137
      ],
      "scale": [
        1.000002145767212,
        0.9999998211860657,
        0.9999945759773254
      ],
      "translation": [
        0.0,
        0.16930000483989716,
        0.0
      ]
    },
    {
      "children": [
        25
      ],
      "name": "Neck_Dinosaur",
      "rotation": [
        0.3794735074043274,
        0.0,
        0.0,
        0.9252026081085205
      ],
      "scale": [
        1.0,
        1.0000003576278687,
        1.0000003576278687
      ],
      "translation": [
        0.0,
        1.1969200372695923,
        0.0
      ]
    },
    {
      "children": [
        26,
        27,
        28,
        29,
        30,
        31,
        32
      ],
      "name": "Head_Dinosaur",
      "rotation": [
        0.41697537899017334,
        -0.043274328112602234,
        -0.0828700065612793,
        0.9040970206260681
      ],
      "scale": [
        0.9999967813491821,
        1.000007152557373,
        1.0000029802322388
      ],
      "translation": [
        0.0,
        1.1611900329589844,
        0.0
      ]
    },
    {
      "name": "EyeLeft_Dinosaur",
      "rotation": [
        -0.5,
        0.5,
        0.5,
        0.5
      ],
      "scale": [
        1.0,
        1.0,
        1.0
      ],
      "translation": [
        -0.914330005645752,
        1.0374300479888916,
        -0.46573999524116516
      ]
    },
    {
      "name": "EyeRight_Dinosaur",
      "rotation": [
        -0.5,
        -0.5,
        -0.5,
        0.5
      ],
      "scale": [
        1.0,
        1.0,
        1.0
      ],
      "translation": [
        0.914330005645752,
        1.0374300479888916,
        -0.46573999524116516
      ]
    },
    {
      "name": "EyeLidUpperLeft_Dinosaur",
      "rotation": [
        -0.15008309483528137,
        0.2822982966899872,
        0.16149549186229706,
        0.9336498975753784
      ],
      "scale": [
        0.9999940991401672,
        1.0000032186508179,
        1.0000044107437134
      ],
      "translation": [
        -0.914330005645752,
        1.0374300479888916,
        -0.46573999524116516
      ]
    },
    {
      "name": "EyeLidLowerLeft_Dinosaur",
      "rotation": [
        -0.6152838468551636,
        0.2913094460964203,
        0.7060171365737915,
        0.19520387053489685
      ],
      "scale": [
        0.9999958872795105,
        1.0000027418136597,
        0.999998927116394
      ],
      "translation": [
        -0.914330005645752,
        1.0374300479888916,
        -0.46573999524116516
      ]
    },
    {
      "name": "EyeLidUpperRight_Dinosaur",
      "rotation": [
        -0.22181051969528198,
        -0.4154638648033142,
        -0.4154638648033142,
        0.778190016746521
      ],
      "scale": [
        1.0000029802322388,
        1.0000005960464478,
        0.9999976754188538
      ],
      "translation": [
        0.914330005645752,
        1.0374300479888916,
        -0.46573999524116516
      ]
    },
    {
      "name": "EyeLidLowerRight_Dinosaur",
      "rotation": [
        0.630155086517334,
        0.48276281356811523,
        0.48276281356811523,
        -0.36984407901763916
      ],
      "scale": [
        1.0000061988830566,
        1.0000063180923462,
        1.000000238418579
      ],
      "translation": [
        0.914330005645752,
        1.0374300479888916,
        -0.46573999524116516
      ]
    },
    {
      "name": "LowerJaw_Dinosaur",
      "rotation": [
        0.9642969369888306,
        0.02603236772119999,
        -0.030825531110167503,
        -0.2617321312427521
      ],
      "scale": [
        0.9999934434890747,
        1.0000029802322388,
        1.0
      ],
      "translation": [
        0.02621000073850155,
        -0.3523400127887726,
        -0.1429399996995926
      ]
    },
    {
      "children": [
        34
      ],
      "name": "HipRight_Dinosaur",
      "rotation": [
        -0.1713973581790924,
        0.288743257522583,
        -0.4808043837547302,
        0.8099860548973083
      ],
      "scale": [
        1.0000007152557373,
        1.0000032186508179,
        0.9999964237213135
      ],
      "translation": [
        0.0,
        -1.2550300359725952,
        4.013339996337891
      ]
    },
    {
      "children": [
        35
      ],
      "name": "LegUpperRight_Dinosaur",
      "rotation": [
        -0.354931503534317,
        -0.582886815071106,
        0.1334732174873352,
        0.7186456322669983
      ],
      "scale": [
        0.9999977350234985,
        1.0000030994415283,
        1.0000064373016357
      ],
      "translation": [
        0.0,
        1.4707800149917603,
        0.0
      ]
    },
    {
      "children": [
        36,
        39,
        42
      ],
      "name": "LegLowerRight_Dinosaur",
      "rotation": [
        -0.6919035315513611,
        -0.07451928406953812,
        0.11941786855459213,
        0.7081354260444641
      ],
      "scale": [
        0.9999955892562866,
        1.0000003576278687,
        1.000006079673767
      ],
      "translation": [
        0.0,
        2.5503299236297607,
        0.0
      ]
    },
    {
      "children": [
        37
      ],
      "name": "DewclawUpperRight_Dinosaur",
      "rotation": [
        -0.1353185474872589,
        0.9891843795776367,
        -0.050966523587703705,
        0.02460869960486889
      ],
      "scale": [
        1.0000040531158447,
        0.9999971389770508,
        0.9999958872795105
      ],
      "translation": [
        0.0,
        1.5558700561523438,
        0.0
      ]
    },
    {
      "children": [
        38
      ],
      "name": "DewclawMidRight_Dinosaur",
      "rotation": [
        -0.06354697048664093,
        -0.012688206508755684,
        0.08778148144483566,
        0.9940298795700073
      ],
      "scale": [
        1.0000048875808716,
        0.9999952912330627,
        0.9999989867210388
      ],
      "translation": [
        0.0,
        0.3903999924659729,
        0.0
      ]
    },
    {
      "name": "DewclawTipRight_Dinosaur",
      "rotation": [
        0.09154053032398224,
        -0.007502574473619461,
        -0.1587662547826767,
        0.9830347299575806
      ],
      "scale": [
        0.9999947547912598,
        1.0000059604644775,
        0.9999998211860657
      ],
      "translation": [
        0.0,
        0.19137999415397644,
        0.0
      ]
    },
    {
      "children": [
        40
      ],
      "name": "FootOuterRight_Dinosaur",
      "rotation": [
        0.9094678163528442,
        0.27559635043144226,
        -0.10772822052240372,
        0.2920781075954437
      ],
      "scale": [
        0.9999966025352478,
        0.9999945759773254,
        1.0
      ],
      "translation": [
        0.0,
        1.5558700561523438,
        0.0
      ]
    },
    {
      "children": [
        41
      ],
      "name": "ToeUpperOuterRight_Dinosaur",
      "rotation": [
        0.06370927393436432,
        0.0067901150323450565,
        0.2261001318693161,
        0.9719947576522827
      ],
      "scale": [
        0.9999943375587463,
        0.999999463558197,
        1.0000004768371582
      ],
      "translation": [
        0.0,
        0.42100998759269714,
        0.0
      ]
    },
    {
      "name": "ToeTipOuterRight_Dinosaur",
      "rotation": [
        0.11297433823347092,
        0.10020437836647034,
        -0.010253329761326313,
        0.9884790182113647
      ],
      "scale": [
        1.0000040531158447,
        0.999995768070221,
        0.999997079372406
      ],
      "translation": [
        0.0,
        0.43623998761177063,
        0.0
      ]
    },
    {
      "children": [
        43
      ],
      "name": "FootInnerRight_Dinosaur",
      "rotation": [
        0.8391501307487488,
        -0.17773930728435516,
        0.1338888555765152,
        0.49629589915275574
      ],
      "scale": [
        1.0000078678131104,
        1.000002145767212,
        1.0
      ],
      "translation": [
        0.0,
        1.5558700561523438,
        0.0
      ]
    },
    {
      "children": [
        44
      ],
      "name": "ToeUpperInnerRight_Dinosaur",
      "rotation": [
        0.4197308421134949,
        -0.17678052186965942,
        -0.13107503950595856,
        0.8805645704269409
      ],
      "scale": [
        1.000001311302185,
        0.9999966621398926,
        1.0000064373016357
      ],
      "translation": [
        0.0,
        0.39282000064849854,
        0.0
      ]
    },
    {
      "name": "ToeTipInnerRight_Dinosaur",
      "rotation": [
        -0.13504952192306519,
        0.0004063095257151872,
        -0.020714329555630684,
        0.9906222224235535
      ],
      "scale": [
        0.9999985098838806,
        0.9999936819076538,
        0.9999979734420776
      ],
      "translation": [
        0.0,
        0.4182499945163727,
        0.0
      ]
    },
    {
      "children": [
        46
      ],
      "name": "HipLeft_Dinosaur",
      "rotation": [
        -0.1713973581790924,
        -0.288743257522583,
        0.4808043837547302,
        0.8099860548973083
      ],
      "scale": [
        1.0000007152557373,
        1.0000032186508179,
        0.9999964237213135
      ],
      "translation": [
        0.0,
        -1.2550300359725952,
        4.013339996337891
      ]
    },
    {
      "children": [
        47
      ],
      "name": "LegUpperLeft_Dinosaur",
      "rotation": [
        -0.16333931684494019,
        0.500604510307312,
        -0.17755772173404694,
        0.8313775658607483
      ],
      "scale": [
        0.9999988675117493,
        1.0000067949295044,
        1.0000032186508179
      ],
      "translation": [
        0.0,
        1.4707800149917603,
        0.0
      ]
    },
    {
      "children": [
        48,
        51,
        54
      ],
      "name": "LegLowerLeft_Dinosaur",
      "rotation": [
        -0.6919034123420715,
        0.07451976835727692,
        -0.11941834539175034,
        0.7081353664398193
      ],
      "scale": [
        0.9999980926513672,
        1.0000011920928955,
        0.9999932050704956
      ],
      "translation": [
        0.0,
        2.5503299236297607,
        0.0
      ]
    },
    {
      "children": [
        49
      ],
      "name": "DewclawUpperLeft_Dinosaur",
      "rotation": [
        0.07514585554599762,
        0.9622894525527954,
        -0.25818416476249695,
        0.04114658758044243
      ],
      "scale": [
        1.0000035762786865,
        0.999999463558197,
        0.9999927282333374
      ],
      "translation": [
        0.0,
        1.5558700561523438,
        0.0
      ]
    },
    {
      "children": [
        50
      ],
      "name": "DewclawMidLeft_Dinosaur",
      "rotation": [
        0.04934521019458771,
        -0.00819544680416584,
        -0.06551286578178406,
        0.9965972900390625
      ],
      "scale": [
        0.9999978542327881,
        1.0000030994415283,
        1.0000052452087402
      ],
      "translation": [
        0.0,
        0.3903999924659729,
        0.0
      ]
    },
    {
      "name": "DewclawTipLeft_Dinosaur",
      "rotation": [
        0.0,
        0.0,
        0.001705009606666863,
        0.9999985694885254
      ],
      "scale": [
        0.9999958276748657,
        0.9999958276748657,
        1.0
      ],
      "translation": [
        0.0,
        0.19137999415397644,
        0.0
      ]
    },
    {
      "children": [
        52
      ],
      "name": "FootOuterLeft_Dinosaur",
      "rotation": [
        0.9071998596191406,
        -0.2756693661212921,
        0.10936152935028076,
        0.2983871400356293
      ],
      "scale": [
        0.9999958872795105,
        1.0000076293945313,
        1.000001311302185
      ],
      "translation": [
        0.0,
        1.5558700561523438,
        0.0
      ]
    },
    {
      "children": [
        53
      ],
      "name": "ToeUpperOuterLeft_Dinosaur",
      "rotation": [
        0.06370927393436432,
        -0.0067901150323450565,
        -0.2261001318693161,
        0.9719947576522827
      ],
      "scale": [
        0.9999943375587463,
        0.999999463558197,
        1.0000004768371582
      ],
      "translation": [
        0.0,
        0.42100998759269714,
        0.0
      ]
    },
    {
      "name": "ToeTipOuterLeft_Dinosaur",
      "rotation": [
        -0.12473815679550171,
        -0.0005952726351097226,
        -0.04060598835349083,
        0.9913582801818848
      ],
      "scale": [
        0.9999990463256836,
        0.9999954104423523,
        1.0000007152557373
      ],
      "translation": [
        0.0,
        0.43623998761177063,
        0.0
      ]
    },
    {
      "children": [
        55
      ],
      "name": "FootInnerLeft_Dinosaur",
      "rotation": [
        0.9339645504951477,
        0.2359992116689682,
        -0.06515424698591232,
        0.2603258788585663
      ],
      "scale": [
        1.0000054836273193,
        0.9999989867210388,
        0.9999967813491821
      ],
      "translation": [
        0.0,
        1.5558700561523438,
        0.0
      ]
    },
    {
      "children": [
        56
      ],
      "name": "ToeUpperInnerLeft_Dinosaur",
      "rotation": [
        -0.0026097705122083426,
        0.017551317811012268,
        0.19400998950004578,
        0.9808390736579895
      ],
      "scale": [
        0.9999935626983643,
        1.0000050067901611,
        1.0000003576278687
      ],
      "translation": [
        0.0,
        0.39282000064849854,
        0.0
      ]
    },
    {
      "name": "ToeTipInnerLeft_Dinosaur",
      "rotation": [
        -0.13504952192306519,
        -0.0004063095257151872,
        0.020714329555630684,
        0.9906222224235535
      ],
      "scale": [
        0.9999985098838806,
        0.9999936819076538,
        0.9999979734420776
      ],
      "translation": [
        0.0,
        0.4182499945163727,
        0.0
      ]
    },
    {
      "children": [
        58
      ],
      "name": "TailRoot_Dinosaur",
      "rotation": [
        0.9161471724510193,
        0.0,
        0.0,
        -0.4008423388004303
      ],
      "scale": [
        1.0,
        0.9999986290931702,
        0.9999986290931702
      ],
      "translation": [
        0.0,
        -1.2550300359725952,
        4.013339996337891
      ]
    },
    {
      "children": [
        59
      ],
      "name": "TailMid_Dinosaur",
      "rotation": [
        -0.17840534448623657,
        0.12033837288618088,
        0.16104595363140106,
        0.9632000923156738
      ],
      "scale": [
        1.0000063180923462,
        0.9999974370002747,
        0.999998927116394
      ],
      "translation": [
        0.0,
        1.6881999969482422,
        0.0
      ]
    },
    {
      "name": "TailEnd_Dinosaur",
      "rotation": [
        -0.22001223266124725,
        0.9626836180686951,
        -0.14050838351249695,
        -0.07136029750108719
      ],
      "scale": [
        1.0000064373016357,
        0.9999958276748657,
        0.9999990463256836
      ],
      "translation": [
        0.0,
        1.2294600009918213,
        0.0
      ]
    },
    {
      "name": "Body"
    },
    {
      "mesh": 0,
      "name": "Body_0",
      "skin": 0
    },
    {
      "children": [
        63
      ],
      "matrix": [
        1.0,
        0.0,
        0.0,
        0.0,
        0.0,
        1.0,
        0.0,
        0.0,
        0.0,
        0.0,
        1.0,
        0.0,
        4.78585,
        -4.47003,
        2.7931600000000003,
        1.0
      ],
      "name": "Point"
    },
    {
      "name": "Point"
    },
    {
      "children": [
        65
      ],
      "matrix": [
        1.0,
        0.0,
        0.0,
        0.0,
        0.0,
        1.0,
        0.0,
        0.0,
        0.0,
        0.0,
        1.0,
        0.0,
        -5.113949999999999,
        -0.28618000000000005,
        9.39183,
        1.0
      ],
      "name": "Point.001"
    },
    {
      "name": "Point.001"
    },
    {
      "children": [
        67
      ],
      "matrix": [
        1.0,
        0.0,
        0.0,
        0.0,
        0.0,
        1.0,
        0.0,
        0.0,
        0.0,
        0.0,
        1.0,
        0.0,
        -5.08015,
        6.789220000000001,
        -4.68296,
        1.0
      ],
      "name": "Point.002"
    },
    {
      "name": "Point.002"
    }
  ],
  "samplers": [
    {
      "magFilter": 9729,
      "minFilter": 9987,
      "wrapS": 10497,
      "wrapT": 10497
    }
  ],
  "scene": 0,
  "scenes": [
    {
      "name": "Sketchfab_Scene",
      "nodes": [
        0
      ]
    }
  ],
  "skins": [
    {
      "inverseBindMatrices": 4,
      "joints": [
        3,
        4,
        5,
        6,
        7,
        8,
        9,
        10,
        11,
        12,
        13,
        14,
        15,
        16,
        17,
        18,
        19,
        20,
        21,
        22,
        23,
        24,
        25,
        26,
        27,
        28,
        29,
        30,
        31,
        32,
        33,
        34,
        35,
        36,
        37,
        38,
        39,
        40,
        41,
        42,
        43,
        44,
        45,
        46,
        47,
        48,
        49,
        50,
        51,
        52,
        53,
        54,
        55,
        56,
        57,
        58,
        59
      ],
      "skeleton": 3
    }
  ],
  "textures": [
    {
      "sampler": 0,
      "source": 0
    }
  ]
}
