{
  "accessors": [
    {
      "bufferView": 2,
      "componentType": 5126,
      "count": 51724,
      "max": [
        1.1393078565597534,
        2.4101405143737793,
        0.9097490906715393
      ],
      "min": [
        -1.1393078565597534,
        -0.41999998688697815,
        -4.297319412231445
      ],
      "type": "VEC3"
    },
    {
      "bufferView": 2,
      "byteOffset": 620688,
      "componentType": 5126,
      "count": 51724,
      "max": [
        1.0,
        1.0,
        1.0
      ],
      "min": [
        -1.0,
        -1.0,
        -1.0
      ],
      "type": "VEC3"
    },
    {
      "bufferView": 1,
      "componentType": 5126,
      "count": 51724,
      "max": [
        0.8125000596046448,
        0.07614439725875854
      ],
      "min": [
        0.05622933804988861,
        0.05750000476837158
      ],
      "type": "VEC2"
    },
    {
      "bufferView": 1,
      "byteOffset": 413792,
      "componentType": 5126,
      "count": 51724,
      "max": [
        0.8125000596046448,
        0.07614439725875854
      ],
      "min": [
        0.05622933804988861,
        0.05750000476837158
      ],
      "type": "VEC2"
    },
    {
      "bufferView": 1,
      "byteOffset": 827584,
      "componentType": 5126,
      "count": 51724,
      "max": [
        0.8125000596046448,
        0.07614439725875854
      ],
      "min": [
        0.05622933804988861,
        0.05750000476837158
      ],
      "type": "VEC2"
    },
    {
      "bufferView": 0,
      "componentType": 5125,
      "count": 168156,
      "type": "SCALAR"
    }
  ],
  "asset": {
    "extras": {
      "author": "Bränninen (https://sketchfab.com/Branninen)",
      "license": "SKETCHFAB Standard (https://sketchfab.com/licenses)",
      "source": "https://sketchfab.com/3d-models/kexedit-lsm-rollercoaster-trains-79bedd291cfe47268e30040e2da08790",
      "title": "KexEdit LSM Rollercoaster Trains"
    },
    "generator": "Sketchfab-16.95.0",
    "version": "2.0"
  },
  "bufferViews": [
    {
      "buffer": 0,
      "byteLength": 672624,
      "name": "floatBufferViews",
      "target": 34963
    },
    {
      "buffer": 0,
      "byteLength": 1241376,
      "byteOffset": 672624,
      "byteStride": 8,
      "name": "floatBufferViews",
      "target": 34962
    },
    {
      "buffer": 0,
      "byteLength": 1241376,
      "byteOffset": 1914000,
      "byteStride": 12,
      "name": "floatBufferViews",
      "target": 34962
    }
  ],
  "buffers": [
    {
      "byteLength": 3155376,
      "uri": "scene.bin"
    }
  ],
  "extensionsUsed": [
    "KHR_materials_clearcoat",
    "KHR_materials_specular"
  ],
  "images": [
    {
      "uri": "textures/LSM_Train_2_baseColor.jpeg"
    },
    {
      "uri": "textures/LSM_Train_2_metallicRoughness.png"
    },
    {
      "uri": "textures/LSM_Train_2_clearcoat.png"
    }
  ],
  "materials": [
    {
      "doubleSided": true,
      "extensions": {
        "KHR_materials_clearcoat": {
          "clearcoatFactor": 1.0,
          "clearcoatRoughnessFactor": 0.04,
          "clearcoatTexture": {
            "index": 2
          }
        },
        "KHR_materials_specular": {
          "specularColorFactor": [
            1.0,
            1.0,
            1.0
          ],
          "specularFactor": 1.0
        }
      },
      "name": "LSM_Train_2",
      "pbrMetallicRoughness": {
        "baseColorTexture": {
          "index": 0
        },
        "metallicRoughnessTexture": {
          "index": 1
        }
      }
    }
  ],
  "meshes": [
    {
      "name": "Object_0",
      "primitives": [
        {
          "attributes": {
            "NORMAL": 1,
            "POSITION": 0,
            "TEXCOORD_0": 2,
            "TEXCOORD_1": 3,
            "TEXCOORD_2": 4
          },
          "indices": 5,
          "material": 0,
          "mode": 4
        }
      ]
    }
  ],
  "nodes": [
    {
      "children": [
        1
      ],
      "matrix": [
        0.0043434964026962675,
        2.6653557625583007e-16,
        -0.696169814350224,
        0.0,
        -0.696169814350224,
        1.129192748104322e-16,
        -0.0043434964026962675,
        0.0,
        1.1125416226818457e-16,
        0.6961833834648132,
        2.672349028383453e-16,
        0.0,
        0.0,
        0.0,
        0.0,
        1.0
      ],
      "name": "Sketchfab_model"
    },
    {
      "children": [
        2
      ],
      "name": "root"
    },
    {
      "children": [
        3
      ],
      "matrix": [
        1.0,
        0.0,
        0.0,
        0.0,
        0.0,
        2.220446049250313e-16,
        1.0,
        0.0,
        0.0,
        -1.0,
        2.220446049250313e-16,
        0.0,
        0.0,
        0.0,
        0.0,
        1.0
      ],
      "name": "GLTF_SceneRootNode"
    },
    {
      "children": [
        4
      ],
      "matrix": [
        1.0,
        0.0,
        0.0,
        0.0,
        0.0,
        1.0,
        0.0,
        0.0,
        0.0,
        0.0,
        1.0,
        0.0,
        0.0,
        0.0,
        1.8000000715255737,
        1.0
      ],
      "name": "Plane.003_0"
    },
    {
      "mesh": 0,
      "name": "Object_4"
    }
  ],
  "samplers": [
    {
      "magFilter": 9729,
      "minFilter": 9987,
      "wrapS": 10497,
      "wrapT": 10497
    }
  ],
  "scene": 0,
  "scenes": [
    {
      "name": "Sketchfab_Scene",
      "nodes": [
        0
      ]
    }
  ],
  "textures": [
    {
      "sampler": 0,
      "source": 0
    },
    {
      "sampler": 0,
      "source": 1
    },
    {
      "sampler": 0,
      "source": 2
    }
  ]
}
